<mxfile host="app.diagrams.net" modified="2023-05-29T02:48:48.540Z" agent="Mozilla/5.0 (Windows NT 10.0; Win64; x64) AppleWebKit/537.36 (KHTML, like Gecko) Chrome/113.0.0.0 Safari/537.36" etag="2JMl4Z5mtYUbDHk5Ow_f" version="21.3.4" type="github">
  <diagram id="C5RBs43oDa-KdzZeNtuy" name="Page-1">
    <mxGraphModel dx="1034" dy="462" grid="1" gridSize="10" guides="1" tooltips="1" connect="1" arrows="1" fold="1" page="1" pageScale="1" pageWidth="827" pageHeight="1169" math="0" shadow="0">
      <root>
        <mxCell id="WIyWlLk6GJQsqaUBKTNV-0" />
        <mxCell id="WIyWlLk6GJQsqaUBKTNV-1" parent="WIyWlLk6GJQsqaUBKTNV-0" />
        <mxCell id="pSBP2XaphJv6vQinyB6E-55" value="&lt;font style=&quot;font-size: 11px;&quot;&gt;管理员&lt;/font&gt;" style="rounded=0;whiteSpace=wrap;html=1;" parent="WIyWlLk6GJQsqaUBKTNV-1" vertex="1">
          <mxGeometry x="320" y="530" width="40" height="20" as="geometry" />
        </mxCell>
        <mxCell id="pSBP2XaphJv6vQinyB6E-56" value="" style="endArrow=none;html=1;rounded=0;exitX=0.5;exitY=0;exitDx=0;exitDy=0;" parent="WIyWlLk6GJQsqaUBKTNV-1" source="pSBP2XaphJv6vQinyB6E-55" edge="1">
          <mxGeometry width="50" height="50" relative="1" as="geometry">
            <mxPoint x="350" y="580" as="sourcePoint" />
            <mxPoint x="320" y="490" as="targetPoint" />
          </mxGeometry>
        </mxCell>
        <mxCell id="pSBP2XaphJv6vQinyB6E-57" value="" style="endArrow=none;html=1;rounded=0;exitX=0;exitY=0.5;exitDx=0;exitDy=0;" parent="WIyWlLk6GJQsqaUBKTNV-1" source="pSBP2XaphJv6vQinyB6E-55" target="pSBP2XaphJv6vQinyB6E-58" edge="1">
          <mxGeometry width="50" height="50" relative="1" as="geometry">
            <mxPoint x="350" y="580" as="sourcePoint" />
            <mxPoint x="300" y="520" as="targetPoint" />
          </mxGeometry>
        </mxCell>
        <mxCell id="pSBP2XaphJv6vQinyB6E-58" value="&lt;font style=&quot;font-size: 9px;&quot;&gt;用户名&lt;/font&gt;" style="ellipse;whiteSpace=wrap;html=1;" parent="WIyWlLk6GJQsqaUBKTNV-1" vertex="1">
          <mxGeometry x="260" y="510" width="30" height="20" as="geometry" />
        </mxCell>
        <mxCell id="pSBP2XaphJv6vQinyB6E-59" value="" style="endArrow=none;html=1;rounded=0;exitX=1;exitY=0.5;exitDx=0;exitDy=0;" parent="WIyWlLk6GJQsqaUBKTNV-1" source="pSBP2XaphJv6vQinyB6E-55" edge="1">
          <mxGeometry width="50" height="50" relative="1" as="geometry">
            <mxPoint x="320" y="540" as="sourcePoint" />
            <mxPoint x="400" y="530" as="targetPoint" />
          </mxGeometry>
        </mxCell>
        <mxCell id="pSBP2XaphJv6vQinyB6E-60" value="&lt;font style=&quot;font-size: 9px;&quot;&gt;密码&lt;/font&gt;" style="ellipse;whiteSpace=wrap;html=1;" parent="WIyWlLk6GJQsqaUBKTNV-1" vertex="1">
          <mxGeometry x="398" y="520" width="30" height="20" as="geometry" />
        </mxCell>
        <mxCell id="pSBP2XaphJv6vQinyB6E-61" value="&lt;font style=&quot;font-size: 9px;&quot;&gt;昵称&lt;/font&gt;" style="ellipse;whiteSpace=wrap;html=1;" parent="WIyWlLk6GJQsqaUBKTNV-1" vertex="1">
          <mxGeometry x="270" y="480" width="30" height="20" as="geometry" />
        </mxCell>
        <mxCell id="pSBP2XaphJv6vQinyB6E-62" value="&lt;font style=&quot;font-size: 9px;&quot;&gt;邮箱&lt;/font&gt;" style="ellipse;whiteSpace=wrap;html=1;" parent="WIyWlLk6GJQsqaUBKTNV-1" vertex="1">
          <mxGeometry x="300" y="470" width="30" height="20" as="geometry" />
        </mxCell>
        <mxCell id="pSBP2XaphJv6vQinyB6E-63" value="&lt;font style=&quot;font-size: 9px;&quot;&gt;手机&lt;/font&gt;" style="ellipse;whiteSpace=wrap;html=1;" parent="WIyWlLk6GJQsqaUBKTNV-1" vertex="1">
          <mxGeometry x="398" y="480" width="30" height="20" as="geometry" />
        </mxCell>
        <mxCell id="pSBP2XaphJv6vQinyB6E-64" value="&lt;font style=&quot;font-size: 9px;&quot;&gt;机构&lt;/font&gt;" style="ellipse;whiteSpace=wrap;html=1;" parent="WIyWlLk6GJQsqaUBKTNV-1" vertex="1">
          <mxGeometry x="383" y="460" width="30" height="20" as="geometry" />
        </mxCell>
        <mxCell id="pSBP2XaphJv6vQinyB6E-66" value="" style="endArrow=none;html=1;rounded=0;exitX=0.5;exitY=0;exitDx=0;exitDy=0;" parent="WIyWlLk6GJQsqaUBKTNV-1" source="pSBP2XaphJv6vQinyB6E-55" edge="1">
          <mxGeometry width="50" height="50" relative="1" as="geometry">
            <mxPoint x="350" y="580" as="sourcePoint" />
            <mxPoint x="290" y="500" as="targetPoint" />
          </mxGeometry>
        </mxCell>
        <mxCell id="pSBP2XaphJv6vQinyB6E-70" value="" style="endArrow=none;html=1;rounded=0;" parent="WIyWlLk6GJQsqaUBKTNV-1" edge="1">
          <mxGeometry width="50" height="50" relative="1" as="geometry">
            <mxPoint x="340" y="530" as="sourcePoint" />
            <mxPoint x="410" y="500" as="targetPoint" />
          </mxGeometry>
        </mxCell>
        <mxCell id="pSBP2XaphJv6vQinyB6E-71" value="" style="endArrow=none;html=1;rounded=0;" parent="WIyWlLk6GJQsqaUBKTNV-1" edge="1">
          <mxGeometry width="50" height="50" relative="1" as="geometry">
            <mxPoint x="340" y="530" as="sourcePoint" />
            <mxPoint x="400" y="480" as="targetPoint" />
          </mxGeometry>
        </mxCell>
        <mxCell id="pSBP2XaphJv6vQinyB6E-73" value="" style="endArrow=none;html=1;rounded=0;exitX=0.5;exitY=0;exitDx=0;exitDy=0;" parent="WIyWlLk6GJQsqaUBKTNV-1" source="pSBP2XaphJv6vQinyB6E-55" target="pSBP2XaphJv6vQinyB6E-74" edge="1">
          <mxGeometry width="50" height="50" relative="1" as="geometry">
            <mxPoint x="350" y="580" as="sourcePoint" />
            <mxPoint x="350" y="460" as="targetPoint" />
          </mxGeometry>
        </mxCell>
        <mxCell id="pSBP2XaphJv6vQinyB6E-74" value="&lt;font style=&quot;font-size: 9px;&quot;&gt;完成&lt;/font&gt;" style="rhombus;whiteSpace=wrap;html=1;" parent="WIyWlLk6GJQsqaUBKTNV-1" vertex="1">
          <mxGeometry x="325" y="430" width="40" height="30" as="geometry" />
        </mxCell>
        <mxCell id="pSBP2XaphJv6vQinyB6E-75" value="&lt;font style=&quot;font-size: 9px;&quot;&gt;M&lt;/font&gt;" style="text;html=1;align=center;verticalAlign=middle;resizable=0;points=[];autosize=1;strokeColor=none;fillColor=none;" parent="WIyWlLk6GJQsqaUBKTNV-1" vertex="1">
          <mxGeometry x="335" y="470" width="30" height="30" as="geometry" />
        </mxCell>
        <mxCell id="pSBP2XaphJv6vQinyB6E-76" value="" style="endArrow=none;html=1;rounded=0;exitX=1;exitY=0.5;exitDx=0;exitDy=0;entryX=0;entryY=0.5;entryDx=0;entryDy=0;" parent="WIyWlLk6GJQsqaUBKTNV-1" source="pSBP2XaphJv6vQinyB6E-55" target="pSBP2XaphJv6vQinyB6E-77" edge="1">
          <mxGeometry width="50" height="50" relative="1" as="geometry">
            <mxPoint x="460" y="620" as="sourcePoint" />
            <mxPoint x="450" y="560" as="targetPoint" />
          </mxGeometry>
        </mxCell>
        <mxCell id="pSBP2XaphJv6vQinyB6E-77" value="&lt;font style=&quot;font-size: 9px;&quot;&gt;完成&lt;/font&gt;" style="rhombus;whiteSpace=wrap;html=1;" parent="WIyWlLk6GJQsqaUBKTNV-1" vertex="1">
          <mxGeometry x="450" y="540" width="40" height="30" as="geometry" />
        </mxCell>
        <mxCell id="pSBP2XaphJv6vQinyB6E-78" value="&lt;font style=&quot;font-size: 9px;&quot;&gt;M&lt;/font&gt;" style="text;html=1;align=center;verticalAlign=middle;resizable=0;points=[];autosize=1;strokeColor=none;fillColor=none;" parent="WIyWlLk6GJQsqaUBKTNV-1" vertex="1">
          <mxGeometry x="413" y="530" width="30" height="30" as="geometry" />
        </mxCell>
        <mxCell id="pSBP2XaphJv6vQinyB6E-83" value="" style="endArrow=none;html=1;rounded=0;exitX=0;exitY=0.5;exitDx=0;exitDy=0;" parent="WIyWlLk6GJQsqaUBKTNV-1" edge="1">
          <mxGeometry width="50" height="50" relative="1" as="geometry">
            <mxPoint x="386" y="570" as="sourcePoint" />
            <mxPoint x="360" y="540" as="targetPoint" />
          </mxGeometry>
        </mxCell>
        <mxCell id="pSBP2XaphJv6vQinyB6E-85" value="&lt;font style=&quot;font-size: 9px;&quot;&gt;M&lt;/font&gt;" style="text;html=1;align=center;verticalAlign=middle;resizable=0;points=[];autosize=1;strokeColor=none;fillColor=none;" parent="WIyWlLk6GJQsqaUBKTNV-1" vertex="1">
          <mxGeometry x="370" y="540" width="30" height="30" as="geometry" />
        </mxCell>
        <mxCell id="pSBP2XaphJv6vQinyB6E-87" value="" style="endArrow=none;html=1;rounded=0;exitX=0.5;exitY=0;exitDx=0;exitDy=0;entryX=0.5;entryY=1;entryDx=0;entryDy=0;" parent="WIyWlLk6GJQsqaUBKTNV-1" source="pSBP2XaphJv6vQinyB6E-55" target="pSBP2XaphJv6vQinyB6E-89" edge="1">
          <mxGeometry width="50" height="50" relative="1" as="geometry">
            <mxPoint x="350" y="580" as="sourcePoint" />
            <mxPoint x="400" y="430" as="targetPoint" />
          </mxGeometry>
        </mxCell>
        <mxCell id="pSBP2XaphJv6vQinyB6E-88" value="&lt;font style=&quot;font-size: 9px;&quot;&gt;M&lt;/font&gt;" style="text;html=1;align=center;verticalAlign=middle;resizable=0;points=[];autosize=1;strokeColor=none;fillColor=none;" parent="WIyWlLk6GJQsqaUBKTNV-1" vertex="1">
          <mxGeometry x="356" y="470" width="30" height="30" as="geometry" />
        </mxCell>
        <mxCell id="pSBP2XaphJv6vQinyB6E-89" value="&lt;font style=&quot;font-size: 9px;&quot;&gt;完成&lt;/font&gt;" style="rhombus;whiteSpace=wrap;html=1;" parent="WIyWlLk6GJQsqaUBKTNV-1" vertex="1">
          <mxGeometry x="378" y="410" width="40" height="30" as="geometry" />
        </mxCell>
        <mxCell id="pSBP2XaphJv6vQinyB6E-90" value="" style="endArrow=none;html=1;rounded=0;entryX=0.5;entryY=1;entryDx=0;entryDy=0;" parent="WIyWlLk6GJQsqaUBKTNV-1" target="pSBP2XaphJv6vQinyB6E-55" edge="1">
          <mxGeometry width="50" height="50" relative="1" as="geometry">
            <mxPoint x="340" y="630" as="sourcePoint" />
            <mxPoint x="400" y="600" as="targetPoint" />
          </mxGeometry>
        </mxCell>
        <mxCell id="pSBP2XaphJv6vQinyB6E-91" value="&lt;font style=&quot;font-size: 9px;&quot;&gt;完成&lt;/font&gt;" style="rhombus;whiteSpace=wrap;html=1;" parent="WIyWlLk6GJQsqaUBKTNV-1" vertex="1">
          <mxGeometry x="320" y="630" width="40" height="30" as="geometry" />
        </mxCell>
        <mxCell id="pSBP2XaphJv6vQinyB6E-92" value="&lt;font style=&quot;font-size: 9px;&quot;&gt;M&lt;/font&gt;" style="text;html=1;align=center;verticalAlign=middle;resizable=0;points=[];autosize=1;strokeColor=none;fillColor=none;" parent="WIyWlLk6GJQsqaUBKTNV-1" vertex="1">
          <mxGeometry x="330" y="570" width="30" height="30" as="geometry" />
        </mxCell>
        <mxCell id="pSBP2XaphJv6vQinyB6E-93" value="" style="endArrow=none;html=1;rounded=0;exitX=0.5;exitY=1;exitDx=0;exitDy=0;" parent="WIyWlLk6GJQsqaUBKTNV-1" source="pSBP2XaphJv6vQinyB6E-91" target="pSBP2XaphJv6vQinyB6E-94" edge="1">
          <mxGeometry width="50" height="50" relative="1" as="geometry">
            <mxPoint x="350" y="650" as="sourcePoint" />
            <mxPoint x="340" y="690" as="targetPoint" />
          </mxGeometry>
        </mxCell>
        <mxCell id="pSBP2XaphJv6vQinyB6E-94" value="&lt;font style=&quot;font-size: 10px;&quot;&gt;普通用户&lt;/font&gt;" style="rounded=0;whiteSpace=wrap;html=1;" parent="WIyWlLk6GJQsqaUBKTNV-1" vertex="1">
          <mxGeometry x="317.5" y="680" width="45" height="20" as="geometry" />
        </mxCell>
        <mxCell id="pSBP2XaphJv6vQinyB6E-95" value="" style="endArrow=none;html=1;rounded=0;exitX=0;exitY=0.5;exitDx=0;exitDy=0;" parent="WIyWlLk6GJQsqaUBKTNV-1" target="pSBP2XaphJv6vQinyB6E-96" edge="1">
          <mxGeometry width="50" height="50" relative="1" as="geometry">
            <mxPoint x="317.5" y="690" as="sourcePoint" />
            <mxPoint x="297.5" y="670" as="targetPoint" />
          </mxGeometry>
        </mxCell>
        <mxCell id="pSBP2XaphJv6vQinyB6E-96" value="&lt;font style=&quot;font-size: 9px;&quot;&gt;用户名&lt;/font&gt;" style="ellipse;whiteSpace=wrap;html=1;" parent="WIyWlLk6GJQsqaUBKTNV-1" vertex="1">
          <mxGeometry x="257.5" y="660" width="30" height="20" as="geometry" />
        </mxCell>
        <mxCell id="pSBP2XaphJv6vQinyB6E-103" value="" style="endArrow=none;html=1;rounded=0;entryX=0.5;entryY=1;entryDx=0;entryDy=0;exitX=0.5;exitY=0;exitDx=0;exitDy=0;" parent="WIyWlLk6GJQsqaUBKTNV-1" source="pSBP2XaphJv6vQinyB6E-106" target="pSBP2XaphJv6vQinyB6E-94" edge="1">
          <mxGeometry width="50" height="50" relative="1" as="geometry">
            <mxPoint x="320" y="740" as="sourcePoint" />
            <mxPoint x="400" y="670" as="targetPoint" />
          </mxGeometry>
        </mxCell>
        <mxCell id="pSBP2XaphJv6vQinyB6E-104" value="" style="endArrow=none;html=1;rounded=0;" parent="WIyWlLk6GJQsqaUBKTNV-1" edge="1">
          <mxGeometry width="50" height="50" relative="1" as="geometry">
            <mxPoint x="255" y="720" as="sourcePoint" />
            <mxPoint x="315" y="690" as="targetPoint" />
          </mxGeometry>
        </mxCell>
        <mxCell id="pSBP2XaphJv6vQinyB6E-105" value="&lt;font size=&quot;1&quot;&gt;昵称&lt;/font&gt;" style="ellipse;whiteSpace=wrap;html=1;" parent="WIyWlLk6GJQsqaUBKTNV-1" vertex="1">
          <mxGeometry x="240" y="720" width="30" height="20" as="geometry" />
        </mxCell>
        <mxCell id="pSBP2XaphJv6vQinyB6E-106" value="&lt;font style=&quot;font-size: 9px;&quot;&gt;邮箱&lt;/font&gt;" style="ellipse;whiteSpace=wrap;html=1;" parent="WIyWlLk6GJQsqaUBKTNV-1" vertex="1">
          <mxGeometry x="287.5" y="740" width="30" height="20" as="geometry" />
        </mxCell>
        <mxCell id="pSBP2XaphJv6vQinyB6E-107" value="" style="endArrow=none;html=1;rounded=0;" parent="WIyWlLk6GJQsqaUBKTNV-1" edge="1">
          <mxGeometry width="50" height="50" relative="1" as="geometry">
            <mxPoint x="340" y="700" as="sourcePoint" />
            <mxPoint x="330" y="740" as="targetPoint" />
          </mxGeometry>
        </mxCell>
        <mxCell id="pSBP2XaphJv6vQinyB6E-108" value="&lt;font style=&quot;font-size: 9px;&quot;&gt;N&lt;/font&gt;" style="text;html=1;align=center;verticalAlign=middle;resizable=0;points=[];autosize=1;strokeColor=none;fillColor=none;" parent="WIyWlLk6GJQsqaUBKTNV-1" vertex="1">
          <mxGeometry x="317.5" y="655" width="30" height="30" as="geometry" />
        </mxCell>
        <mxCell id="pSBP2XaphJv6vQinyB6E-111" value="&lt;font size=&quot;1&quot;&gt;机构&lt;/font&gt;" style="ellipse;whiteSpace=wrap;html=1;" parent="WIyWlLk6GJQsqaUBKTNV-1" vertex="1">
          <mxGeometry x="317.5" y="740" width="30" height="20" as="geometry" />
        </mxCell>
        <mxCell id="pSBP2XaphJv6vQinyB6E-115" value="" style="endArrow=none;html=1;rounded=0;exitX=1;exitY=0.5;exitDx=0;exitDy=0;" parent="WIyWlLk6GJQsqaUBKTNV-1" source="pSBP2XaphJv6vQinyB6E-94" edge="1">
          <mxGeometry width="50" height="50" relative="1" as="geometry">
            <mxPoint x="350" y="720" as="sourcePoint" />
            <mxPoint x="400" y="710" as="targetPoint" />
          </mxGeometry>
        </mxCell>
        <mxCell id="pSBP2XaphJv6vQinyB6E-116" value="&lt;font size=&quot;1&quot;&gt;手机&lt;/font&gt;" style="ellipse;whiteSpace=wrap;html=1;" parent="WIyWlLk6GJQsqaUBKTNV-1" vertex="1">
          <mxGeometry x="388" y="710" width="30" height="20" as="geometry" />
        </mxCell>
        <mxCell id="pSBP2XaphJv6vQinyB6E-119" value="&lt;font style=&quot;font-size: 9px;&quot;&gt;完成&lt;/font&gt;" style="rhombus;whiteSpace=wrap;html=1;" parent="WIyWlLk6GJQsqaUBKTNV-1" vertex="1">
          <mxGeometry x="370" y="570" width="35" height="20" as="geometry" />
        </mxCell>
        <mxCell id="pSBP2XaphJv6vQinyB6E-120" value="" style="endArrow=none;html=1;rounded=0;entryX=1;entryY=0.5;entryDx=0;entryDy=0;" parent="WIyWlLk6GJQsqaUBKTNV-1" target="pSBP2XaphJv6vQinyB6E-119" edge="1">
          <mxGeometry width="50" height="50" relative="1" as="geometry">
            <mxPoint x="420" y="600" as="sourcePoint" />
            <mxPoint x="400" y="600" as="targetPoint" />
          </mxGeometry>
        </mxCell>
        <mxCell id="pSBP2XaphJv6vQinyB6E-121" value="&lt;font style=&quot;font-size: 9px;&quot;&gt;N&lt;/font&gt;" style="text;html=1;align=center;verticalAlign=middle;resizable=0;points=[];autosize=1;strokeColor=none;fillColor=none;" parent="WIyWlLk6GJQsqaUBKTNV-1" vertex="1">
          <mxGeometry x="400" y="570" width="30" height="30" as="geometry" />
        </mxCell>
        <mxCell id="pSBP2XaphJv6vQinyB6E-122" value="" style="endArrow=none;html=1;rounded=0;exitX=1;exitY=0.5;exitDx=0;exitDy=0;" parent="WIyWlLk6GJQsqaUBKTNV-1" source="pSBP2XaphJv6vQinyB6E-77" edge="1">
          <mxGeometry width="50" height="50" relative="1" as="geometry">
            <mxPoint x="350" y="650" as="sourcePoint" />
            <mxPoint x="530" y="570" as="targetPoint" />
          </mxGeometry>
        </mxCell>
        <mxCell id="pSBP2XaphJv6vQinyB6E-123" value="&lt;font style=&quot;font-size: 9px;&quot;&gt;账号管理&lt;/font&gt;" style="rounded=0;whiteSpace=wrap;html=1;" parent="WIyWlLk6GJQsqaUBKTNV-1" vertex="1">
          <mxGeometry x="413" y="600" width="40" height="20" as="geometry" />
        </mxCell>
        <mxCell id="pSBP2XaphJv6vQinyB6E-124" value="&lt;font style=&quot;font-size: 9px;&quot;&gt;停车场管理&lt;/font&gt;" style="rounded=0;whiteSpace=wrap;html=1;" parent="WIyWlLk6GJQsqaUBKTNV-1" vertex="1">
          <mxGeometry x="520" y="570" width="50" height="20" as="geometry" />
        </mxCell>
        <mxCell id="pSBP2XaphJv6vQinyB6E-125" value="" style="endArrow=none;html=1;rounded=0;" parent="WIyWlLk6GJQsqaUBKTNV-1" edge="1">
          <mxGeometry width="50" height="50" relative="1" as="geometry">
            <mxPoint x="340" y="530" as="sourcePoint" />
            <mxPoint x="450" y="500" as="targetPoint" />
          </mxGeometry>
        </mxCell>
        <mxCell id="pSBP2XaphJv6vQinyB6E-126" value="&lt;font style=&quot;font-size: 9px;&quot;&gt;完成&lt;/font&gt;" style="rhombus;whiteSpace=wrap;html=1;" parent="WIyWlLk6GJQsqaUBKTNV-1" vertex="1">
          <mxGeometry x="450" y="490" width="35" height="20" as="geometry" />
        </mxCell>
        <mxCell id="pSBP2XaphJv6vQinyB6E-127" value="&lt;font style=&quot;font-size: 9px;&quot;&gt;M&lt;/font&gt;" style="text;html=1;align=center;verticalAlign=middle;resizable=0;points=[];autosize=1;strokeColor=none;fillColor=none;" parent="WIyWlLk6GJQsqaUBKTNV-1" vertex="1">
          <mxGeometry x="388" y="500" width="30" height="30" as="geometry" />
        </mxCell>
        <mxCell id="pSBP2XaphJv6vQinyB6E-128" value="&lt;font style=&quot;font-size: 9px;&quot;&gt;N&lt;/font&gt;" style="text;html=1;align=center;verticalAlign=middle;resizable=0;points=[];autosize=1;strokeColor=none;fillColor=none;" parent="WIyWlLk6GJQsqaUBKTNV-1" vertex="1">
          <mxGeometry x="485" y="550" width="30" height="30" as="geometry" />
        </mxCell>
        <mxCell id="pSBP2XaphJv6vQinyB6E-130" value="" style="endArrow=none;html=1;rounded=0;exitX=1;exitY=0.5;exitDx=0;exitDy=0;entryX=0.39;entryY=1.107;entryDx=0;entryDy=0;entryPerimeter=0;" parent="WIyWlLk6GJQsqaUBKTNV-1" source="pSBP2XaphJv6vQinyB6E-94" target="pSBP2XaphJv6vQinyB6E-123" edge="1">
          <mxGeometry width="50" height="50" relative="1" as="geometry">
            <mxPoint x="350" y="640" as="sourcePoint" />
            <mxPoint x="400" y="590" as="targetPoint" />
          </mxGeometry>
        </mxCell>
        <mxCell id="pSBP2XaphJv6vQinyB6E-131" value="" style="endArrow=none;html=1;rounded=0;" parent="WIyWlLk6GJQsqaUBKTNV-1" edge="1">
          <mxGeometry width="50" height="50" relative="1" as="geometry">
            <mxPoint x="430" y="620" as="sourcePoint" />
            <mxPoint x="430" y="660" as="targetPoint" />
          </mxGeometry>
        </mxCell>
        <mxCell id="pSBP2XaphJv6vQinyB6E-132" value="" style="endArrow=none;html=1;rounded=0;" parent="WIyWlLk6GJQsqaUBKTNV-1" edge="1">
          <mxGeometry width="50" height="50" relative="1" as="geometry">
            <mxPoint x="430" y="620" as="sourcePoint" />
            <mxPoint x="460" y="650" as="targetPoint" />
          </mxGeometry>
        </mxCell>
        <mxCell id="pSBP2XaphJv6vQinyB6E-134" value="&lt;font style=&quot;font-size: 9px;&quot;&gt;账号&lt;/font&gt;" style="ellipse;whiteSpace=wrap;html=1;" parent="WIyWlLk6GJQsqaUBKTNV-1" vertex="1">
          <mxGeometry x="418" y="660" width="30" height="20" as="geometry" />
        </mxCell>
        <mxCell id="pSBP2XaphJv6vQinyB6E-135" value="" style="endArrow=none;html=1;rounded=0;" parent="WIyWlLk6GJQsqaUBKTNV-1" edge="1">
          <mxGeometry width="50" height="50" relative="1" as="geometry">
            <mxPoint x="250" y="600" as="sourcePoint" />
            <mxPoint x="320" y="540" as="targetPoint" />
          </mxGeometry>
        </mxCell>
        <mxCell id="pSBP2XaphJv6vQinyB6E-136" value="" style="endArrow=none;html=1;rounded=0;" parent="WIyWlLk6GJQsqaUBKTNV-1" edge="1">
          <mxGeometry width="50" height="50" relative="1" as="geometry">
            <mxPoint x="240" y="540" as="sourcePoint" />
            <mxPoint x="320" y="540" as="targetPoint" />
          </mxGeometry>
        </mxCell>
        <mxCell id="pSBP2XaphJv6vQinyB6E-137" value="&lt;font size=&quot;1&quot;&gt;查看&lt;/font&gt;" style="rhombus;whiteSpace=wrap;html=1;" parent="WIyWlLk6GJQsqaUBKTNV-1" vertex="1">
          <mxGeometry x="217.5" y="580" width="40" height="30" as="geometry" />
        </mxCell>
        <mxCell id="pSBP2XaphJv6vQinyB6E-138" value="&lt;font style=&quot;font-size: 9px;&quot;&gt;完成&lt;/font&gt;" style="rhombus;whiteSpace=wrap;html=1;" parent="WIyWlLk6GJQsqaUBKTNV-1" vertex="1">
          <mxGeometry x="200" y="527.5" width="40" height="25" as="geometry" />
        </mxCell>
        <mxCell id="pSBP2XaphJv6vQinyB6E-141" value="&lt;font style=&quot;font-size: 9px;&quot;&gt;用户名&lt;/font&gt;" style="ellipse;whiteSpace=wrap;html=1;" parent="WIyWlLk6GJQsqaUBKTNV-1" vertex="1">
          <mxGeometry x="450" y="650" width="30" height="20" as="geometry" />
        </mxCell>
        <mxCell id="pSBP2XaphJv6vQinyB6E-142" value="" style="endArrow=none;html=1;rounded=0;exitX=0.379;exitY=0.97;exitDx=0;exitDy=0;exitPerimeter=0;" parent="WIyWlLk6GJQsqaUBKTNV-1" source="pSBP2XaphJv6vQinyB6E-123" edge="1">
          <mxGeometry width="50" height="50" relative="1" as="geometry">
            <mxPoint x="350" y="710" as="sourcePoint" />
            <mxPoint x="400" y="680" as="targetPoint" />
          </mxGeometry>
        </mxCell>
        <mxCell id="pSBP2XaphJv6vQinyB6E-143" value="&lt;font style=&quot;font-size: 8px;&quot;&gt;电话号码&lt;/font&gt;" style="ellipse;whiteSpace=wrap;html=1;" parent="WIyWlLk6GJQsqaUBKTNV-1" vertex="1">
          <mxGeometry x="383" y="680" width="37" height="20" as="geometry" />
        </mxCell>
        <mxCell id="pSBP2XaphJv6vQinyB6E-144" value="&lt;font size=&quot;1&quot;&gt;密码&lt;/font&gt;" style="ellipse;whiteSpace=wrap;html=1;" parent="WIyWlLk6GJQsqaUBKTNV-1" vertex="1">
          <mxGeometry x="450" y="690" width="30" height="20" as="geometry" />
        </mxCell>
        <mxCell id="pSBP2XaphJv6vQinyB6E-145" value="" style="endArrow=none;html=1;rounded=0;" parent="WIyWlLk6GJQsqaUBKTNV-1" edge="1">
          <mxGeometry width="50" height="50" relative="1" as="geometry">
            <mxPoint x="460" y="690" as="sourcePoint" />
            <mxPoint x="430" y="620" as="targetPoint" />
          </mxGeometry>
        </mxCell>
        <mxCell id="pSBP2XaphJv6vQinyB6E-147" value="" style="endArrow=none;html=1;rounded=0;" parent="WIyWlLk6GJQsqaUBKTNV-1" edge="1">
          <mxGeometry width="50" height="50" relative="1" as="geometry">
            <mxPoint x="393" y="609.66" as="sourcePoint" />
            <mxPoint x="413" y="609.66" as="targetPoint" />
          </mxGeometry>
        </mxCell>
        <mxCell id="pSBP2XaphJv6vQinyB6E-148" value="&lt;font style=&quot;font-size: 9px;&quot;&gt;邮箱&lt;/font&gt;" style="ellipse;whiteSpace=wrap;html=1;" parent="WIyWlLk6GJQsqaUBKTNV-1" vertex="1">
          <mxGeometry x="365" y="600" width="30" height="20" as="geometry" />
        </mxCell>
        <mxCell id="pSBP2XaphJv6vQinyB6E-149" value="" style="endArrow=none;html=1;rounded=0;" parent="WIyWlLk6GJQsqaUBKTNV-1" edge="1">
          <mxGeometry width="50" height="50" relative="1" as="geometry">
            <mxPoint x="410" y="610" as="sourcePoint" />
            <mxPoint x="390" y="630" as="targetPoint" />
          </mxGeometry>
        </mxCell>
        <mxCell id="pSBP2XaphJv6vQinyB6E-150" value="&lt;font style=&quot;font-size: 9px;&quot;&gt;昵称&lt;/font&gt;" style="ellipse;whiteSpace=wrap;html=1;" parent="WIyWlLk6GJQsqaUBKTNV-1" vertex="1">
          <mxGeometry x="372.5" y="630" width="30" height="20" as="geometry" />
        </mxCell>
        <mxCell id="pSBP2XaphJv6vQinyB6E-151" value="" style="endArrow=none;html=1;rounded=0;entryX=1;entryY=0.5;entryDx=0;entryDy=0;" parent="WIyWlLk6GJQsqaUBKTNV-1" target="pSBP2XaphJv6vQinyB6E-123" edge="1">
          <mxGeometry width="50" height="50" relative="1" as="geometry">
            <mxPoint x="470" y="600" as="sourcePoint" />
            <mxPoint x="400" y="590" as="targetPoint" />
          </mxGeometry>
        </mxCell>
        <mxCell id="pSBP2XaphJv6vQinyB6E-152" value="&lt;font style=&quot;font-size: 8px;&quot;&gt;单位代码&lt;/font&gt;" style="ellipse;whiteSpace=wrap;html=1;" parent="WIyWlLk6GJQsqaUBKTNV-1" vertex="1">
          <mxGeometry x="470" y="585" width="40" height="20" as="geometry" />
        </mxCell>
        <mxCell id="pSBP2XaphJv6vQinyB6E-153" value="" style="endArrow=none;html=1;rounded=0;exitX=1;exitY=0.5;exitDx=0;exitDy=0;" parent="WIyWlLk6GJQsqaUBKTNV-1" source="pSBP2XaphJv6vQinyB6E-123" edge="1">
          <mxGeometry width="50" height="50" relative="1" as="geometry">
            <mxPoint x="350" y="640" as="sourcePoint" />
            <mxPoint x="510" y="610" as="targetPoint" />
          </mxGeometry>
        </mxCell>
        <mxCell id="pSBP2XaphJv6vQinyB6E-154" value="" style="endArrow=none;html=1;rounded=0;entryX=1;entryY=0.5;entryDx=0;entryDy=0;" parent="WIyWlLk6GJQsqaUBKTNV-1" target="pSBP2XaphJv6vQinyB6E-123" edge="1">
          <mxGeometry width="50" height="50" relative="1" as="geometry">
            <mxPoint x="490" y="620" as="sourcePoint" />
            <mxPoint x="400" y="590" as="targetPoint" />
          </mxGeometry>
        </mxCell>
        <mxCell id="pSBP2XaphJv6vQinyB6E-155" value="&lt;font style=&quot;font-size: 9px;&quot;&gt;单位名称&lt;/font&gt;" style="ellipse;whiteSpace=wrap;html=1;" parent="WIyWlLk6GJQsqaUBKTNV-1" vertex="1">
          <mxGeometry x="510" y="600" width="40" height="20" as="geometry" />
        </mxCell>
        <mxCell id="pSBP2XaphJv6vQinyB6E-156" value="&lt;font style=&quot;font-size: 9px;&quot;&gt;负责人&lt;/font&gt;" style="ellipse;whiteSpace=wrap;html=1;" parent="WIyWlLk6GJQsqaUBKTNV-1" vertex="1">
          <mxGeometry x="480" y="620" width="30" height="20" as="geometry" />
        </mxCell>
        <mxCell id="pSBP2XaphJv6vQinyB6E-157" value="" style="endArrow=none;html=1;rounded=0;" parent="WIyWlLk6GJQsqaUBKTNV-1" edge="1">
          <mxGeometry width="50" height="50" relative="1" as="geometry">
            <mxPoint x="450" y="610" as="sourcePoint" />
            <mxPoint x="560" y="630" as="targetPoint" />
          </mxGeometry>
        </mxCell>
        <mxCell id="pSBP2XaphJv6vQinyB6E-158" value="&lt;font style=&quot;font-size: 9px;&quot;&gt;单位全程&lt;/font&gt;" style="ellipse;whiteSpace=wrap;html=1;" parent="WIyWlLk6GJQsqaUBKTNV-1" vertex="1">
          <mxGeometry x="550" y="630" width="40" height="20" as="geometry" />
        </mxCell>
        <mxCell id="pSBP2XaphJv6vQinyB6E-159" value="" style="endArrow=none;html=1;rounded=0;entryX=1;entryY=0.5;entryDx=0;entryDy=0;" parent="WIyWlLk6GJQsqaUBKTNV-1" target="pSBP2XaphJv6vQinyB6E-123" edge="1">
          <mxGeometry width="50" height="50" relative="1" as="geometry">
            <mxPoint x="490" y="660" as="sourcePoint" />
            <mxPoint x="400" y="570" as="targetPoint" />
          </mxGeometry>
        </mxCell>
        <mxCell id="pSBP2XaphJv6vQinyB6E-160" value="&lt;font style=&quot;font-size: 9px;&quot;&gt;地址&lt;/font&gt;" style="ellipse;whiteSpace=wrap;html=1;" parent="WIyWlLk6GJQsqaUBKTNV-1" vertex="1">
          <mxGeometry x="480" y="660" width="30" height="20" as="geometry" />
        </mxCell>
        <mxCell id="pSBP2XaphJv6vQinyB6E-161" value="" style="endArrow=none;html=1;rounded=0;exitX=0.5;exitY=0;exitDx=0;exitDy=0;" parent="WIyWlLk6GJQsqaUBKTNV-1" source="pSBP2XaphJv6vQinyB6E-124" edge="1">
          <mxGeometry width="50" height="50" relative="1" as="geometry">
            <mxPoint x="520" y="620" as="sourcePoint" />
            <mxPoint x="560" y="540" as="targetPoint" />
          </mxGeometry>
        </mxCell>
        <mxCell id="pSBP2XaphJv6vQinyB6E-162" value="" style="endArrow=none;html=1;rounded=0;exitX=0.5;exitY=0;exitDx=0;exitDy=0;" parent="WIyWlLk6GJQsqaUBKTNV-1" source="pSBP2XaphJv6vQinyB6E-124" edge="1">
          <mxGeometry width="50" height="50" relative="1" as="geometry">
            <mxPoint x="520" y="620" as="sourcePoint" />
            <mxPoint x="590" y="550" as="targetPoint" />
          </mxGeometry>
        </mxCell>
        <mxCell id="pSBP2XaphJv6vQinyB6E-163" value="" style="endArrow=none;html=1;rounded=0;exitX=1;exitY=0.5;exitDx=0;exitDy=0;" parent="WIyWlLk6GJQsqaUBKTNV-1" source="pSBP2XaphJv6vQinyB6E-124" edge="1">
          <mxGeometry width="50" height="50" relative="1" as="geometry">
            <mxPoint x="520" y="620" as="sourcePoint" />
            <mxPoint x="610" y="570" as="targetPoint" />
          </mxGeometry>
        </mxCell>
        <mxCell id="pSBP2XaphJv6vQinyB6E-164" value="" style="endArrow=none;html=1;rounded=0;entryX=1;entryY=0.5;entryDx=0;entryDy=0;" parent="WIyWlLk6GJQsqaUBKTNV-1" target="pSBP2XaphJv6vQinyB6E-124" edge="1">
          <mxGeometry width="50" height="50" relative="1" as="geometry">
            <mxPoint x="630" y="590" as="sourcePoint" />
            <mxPoint x="570" y="570" as="targetPoint" />
          </mxGeometry>
        </mxCell>
        <mxCell id="pSBP2XaphJv6vQinyB6E-165" value="" style="endArrow=none;html=1;rounded=0;entryX=1;entryY=0.5;entryDx=0;entryDy=0;exitX=0;exitY=0;exitDx=0;exitDy=0;" parent="WIyWlLk6GJQsqaUBKTNV-1" source="pSBP2XaphJv6vQinyB6E-196" target="pSBP2XaphJv6vQinyB6E-124" edge="1">
          <mxGeometry width="50" height="50" relative="1" as="geometry">
            <mxPoint x="610" y="600" as="sourcePoint" />
            <mxPoint x="570" y="570" as="targetPoint" />
          </mxGeometry>
        </mxCell>
        <mxCell id="pSBP2XaphJv6vQinyB6E-166" value="" style="endArrow=none;html=1;rounded=0;" parent="WIyWlLk6GJQsqaUBKTNV-1" source="pSBP2XaphJv6vQinyB6E-124" edge="1">
          <mxGeometry width="50" height="50" relative="1" as="geometry">
            <mxPoint x="520" y="620" as="sourcePoint" />
            <mxPoint x="530" y="550" as="targetPoint" />
            <Array as="points">
              <mxPoint x="530" y="550" />
            </Array>
          </mxGeometry>
        </mxCell>
        <mxCell id="pSBP2XaphJv6vQinyB6E-167" value="&lt;font style=&quot;font-size: 9px;&quot;&gt;免费时长&lt;/font&gt;" style="ellipse;whiteSpace=wrap;html=1;" parent="WIyWlLk6GJQsqaUBKTNV-1" vertex="1">
          <mxGeometry x="510" y="530" width="40" height="20" as="geometry" />
        </mxCell>
        <mxCell id="pSBP2XaphJv6vQinyB6E-168" value="&lt;font style=&quot;font-size: 9px;&quot;&gt;创建时间&lt;/font&gt;" style="ellipse;whiteSpace=wrap;html=1;" parent="WIyWlLk6GJQsqaUBKTNV-1" vertex="1">
          <mxGeometry x="550" y="520" width="40" height="20" as="geometry" />
        </mxCell>
        <mxCell id="pSBP2XaphJv6vQinyB6E-169" value="&lt;font style=&quot;font-size: 9px;&quot;&gt;单位时间&lt;/font&gt;" style="ellipse;whiteSpace=wrap;html=1;" parent="WIyWlLk6GJQsqaUBKTNV-1" vertex="1">
          <mxGeometry x="590" y="535" width="40" height="20" as="geometry" />
        </mxCell>
        <mxCell id="pSBP2XaphJv6vQinyB6E-171" value="" style="endArrow=none;html=1;rounded=0;exitX=1;exitY=0.5;exitDx=0;exitDy=0;" parent="WIyWlLk6GJQsqaUBKTNV-1" source="pSBP2XaphJv6vQinyB6E-126" edge="1">
          <mxGeometry width="50" height="50" relative="1" as="geometry">
            <mxPoint x="520" y="610" as="sourcePoint" />
            <mxPoint x="530" y="470" as="targetPoint" />
          </mxGeometry>
        </mxCell>
        <mxCell id="pSBP2XaphJv6vQinyB6E-172" value="&lt;span style=&quot;font-size: 11px;&quot;&gt;车辆管理&lt;/span&gt;" style="rounded=0;whiteSpace=wrap;html=1;" parent="WIyWlLk6GJQsqaUBKTNV-1" vertex="1">
          <mxGeometry x="525" y="450" width="55" height="20" as="geometry" />
        </mxCell>
        <mxCell id="pSBP2XaphJv6vQinyB6E-173" value="&lt;font style=&quot;font-size: 9px;&quot;&gt;N&lt;/font&gt;" style="text;html=1;align=center;verticalAlign=middle;resizable=0;points=[];autosize=1;strokeColor=none;fillColor=none;" parent="WIyWlLk6GJQsqaUBKTNV-1" vertex="1">
          <mxGeometry x="495" y="475" width="30" height="30" as="geometry" />
        </mxCell>
        <mxCell id="pSBP2XaphJv6vQinyB6E-174" value="&lt;font style=&quot;font-size: 9px;&quot;&gt;N&lt;/font&gt;" style="text;html=1;align=center;verticalAlign=middle;resizable=0;points=[];autosize=1;strokeColor=none;fillColor=none;" parent="WIyWlLk6GJQsqaUBKTNV-1" vertex="1">
          <mxGeometry x="402.5" y="370" width="30" height="30" as="geometry" />
        </mxCell>
        <mxCell id="pSBP2XaphJv6vQinyB6E-175" value="" style="endArrow=none;html=1;rounded=0;exitX=0.5;exitY=0;exitDx=0;exitDy=0;" parent="WIyWlLk6GJQsqaUBKTNV-1" source="pSBP2XaphJv6vQinyB6E-89" edge="1">
          <mxGeometry width="50" height="50" relative="1" as="geometry">
            <mxPoint x="520" y="400" as="sourcePoint" />
            <mxPoint x="430" y="350" as="targetPoint" />
          </mxGeometry>
        </mxCell>
        <mxCell id="pSBP2XaphJv6vQinyB6E-176" value="&lt;font style=&quot;font-size: 11px;&quot;&gt;角色管理&lt;/font&gt;" style="rounded=0;whiteSpace=wrap;html=1;" parent="WIyWlLk6GJQsqaUBKTNV-1" vertex="1">
          <mxGeometry x="290" y="360" width="55" height="20" as="geometry" />
        </mxCell>
        <mxCell id="pSBP2XaphJv6vQinyB6E-177" value="&lt;span style=&quot;font-size: 11px;&quot;&gt;停车记录&lt;/span&gt;" style="rounded=0;whiteSpace=wrap;html=1;" parent="WIyWlLk6GJQsqaUBKTNV-1" vertex="1">
          <mxGeometry x="405" y="330" width="60" height="20" as="geometry" />
        </mxCell>
        <mxCell id="pSBP2XaphJv6vQinyB6E-178" value="" style="endArrow=none;html=1;rounded=0;exitX=0.5;exitY=0;exitDx=0;exitDy=0;entryX=0.5;entryY=1;entryDx=0;entryDy=0;" parent="WIyWlLk6GJQsqaUBKTNV-1" source="pSBP2XaphJv6vQinyB6E-74" target="pSBP2XaphJv6vQinyB6E-176" edge="1">
          <mxGeometry width="50" height="50" relative="1" as="geometry">
            <mxPoint x="520" y="420" as="sourcePoint" />
            <mxPoint x="570" y="370" as="targetPoint" />
          </mxGeometry>
        </mxCell>
        <mxCell id="pSBP2XaphJv6vQinyB6E-179" value="&lt;font style=&quot;font-size: 11px;&quot;&gt;系统菜单&lt;/font&gt;" style="rounded=0;whiteSpace=wrap;html=1;" parent="WIyWlLk6GJQsqaUBKTNV-1" vertex="1">
          <mxGeometry x="90" y="527.5" width="55" height="20" as="geometry" />
        </mxCell>
        <mxCell id="pSBP2XaphJv6vQinyB6E-180" value="" style="endArrow=none;html=1;rounded=0;exitX=0;exitY=0.5;exitDx=0;exitDy=0;" parent="WIyWlLk6GJQsqaUBKTNV-1" source="pSBP2XaphJv6vQinyB6E-138" target="pSBP2XaphJv6vQinyB6E-179" edge="1">
          <mxGeometry width="50" height="50" relative="1" as="geometry">
            <mxPoint x="340" y="620" as="sourcePoint" />
            <mxPoint x="390" y="570" as="targetPoint" />
          </mxGeometry>
        </mxCell>
        <mxCell id="pSBP2XaphJv6vQinyB6E-181" value="&lt;font style=&quot;font-size: 11px;&quot;&gt;系统监控&lt;/font&gt;" style="rounded=0;whiteSpace=wrap;html=1;" parent="WIyWlLk6GJQsqaUBKTNV-1" vertex="1">
          <mxGeometry x="110" y="630" width="55" height="20" as="geometry" />
        </mxCell>
        <mxCell id="pSBP2XaphJv6vQinyB6E-182" value="" style="endArrow=none;html=1;rounded=0;entryX=0;entryY=0.5;entryDx=0;entryDy=0;exitX=0.75;exitY=0;exitDx=0;exitDy=0;" parent="WIyWlLk6GJQsqaUBKTNV-1" source="pSBP2XaphJv6vQinyB6E-181" target="pSBP2XaphJv6vQinyB6E-137" edge="1">
          <mxGeometry width="50" height="50" relative="1" as="geometry">
            <mxPoint x="120" y="620" as="sourcePoint" />
            <mxPoint x="390" y="570" as="targetPoint" />
          </mxGeometry>
        </mxCell>
        <mxCell id="pSBP2XaphJv6vQinyB6E-183" value="&lt;font style=&quot;font-size: 9px;&quot;&gt;N&lt;/font&gt;" style="text;html=1;align=center;verticalAlign=middle;resizable=0;points=[];autosize=1;strokeColor=none;fillColor=none;" parent="WIyWlLk6GJQsqaUBKTNV-1" vertex="1">
          <mxGeometry x="305" y="390" width="30" height="30" as="geometry" />
        </mxCell>
        <mxCell id="pSBP2XaphJv6vQinyB6E-184" value="&lt;font style=&quot;font-size: 9px;&quot;&gt;N&lt;/font&gt;" style="text;html=1;align=center;verticalAlign=middle;resizable=0;points=[];autosize=1;strokeColor=none;fillColor=none;" parent="WIyWlLk6GJQsqaUBKTNV-1" vertex="1">
          <mxGeometry x="230" y="517.5" width="30" height="30" as="geometry" />
        </mxCell>
        <mxCell id="pSBP2XaphJv6vQinyB6E-185" value="&lt;font style=&quot;font-size: 9px;&quot;&gt;1&lt;/font&gt;" style="text;html=1;align=center;verticalAlign=middle;resizable=0;points=[];autosize=1;strokeColor=none;fillColor=none;" parent="WIyWlLk6GJQsqaUBKTNV-1" vertex="1">
          <mxGeometry x="180" y="580" width="30" height="30" as="geometry" />
        </mxCell>
        <mxCell id="pSBP2XaphJv6vQinyB6E-187" value="&lt;font style=&quot;font-size: 9px;&quot;&gt;单位名称&lt;/font&gt;" style="ellipse;whiteSpace=wrap;html=1;" parent="WIyWlLk6GJQsqaUBKTNV-1" vertex="1">
          <mxGeometry x="610" y="560" width="40" height="20" as="geometry" />
        </mxCell>
        <mxCell id="pSBP2XaphJv6vQinyB6E-188" value="&lt;font style=&quot;font-size: 9px;&quot;&gt;停车场名称&lt;/font&gt;" style="ellipse;whiteSpace=wrap;html=1;" parent="WIyWlLk6GJQsqaUBKTNV-1" vertex="1">
          <mxGeometry x="630" y="580" width="50" height="20" as="geometry" />
        </mxCell>
        <mxCell id="pSBP2XaphJv6vQinyB6E-189" value="" style="endArrow=none;html=1;rounded=0;exitX=1;exitY=0.5;exitDx=0;exitDy=0;" parent="WIyWlLk6GJQsqaUBKTNV-1" source="pSBP2XaphJv6vQinyB6E-172" edge="1">
          <mxGeometry width="50" height="50" relative="1" as="geometry">
            <mxPoint x="660" y="510" as="sourcePoint" />
            <mxPoint x="710" y="460" as="targetPoint" />
          </mxGeometry>
        </mxCell>
        <mxCell id="pSBP2XaphJv6vQinyB6E-190" value="" style="endArrow=none;html=1;rounded=0;entryX=1;entryY=0.5;entryDx=0;entryDy=0;" parent="WIyWlLk6GJQsqaUBKTNV-1" target="pSBP2XaphJv6vQinyB6E-172" edge="1">
          <mxGeometry width="50" height="50" relative="1" as="geometry">
            <mxPoint x="640" y="470" as="sourcePoint" />
            <mxPoint x="540" y="500" as="targetPoint" />
          </mxGeometry>
        </mxCell>
        <mxCell id="pSBP2XaphJv6vQinyB6E-191" value="" style="endArrow=none;html=1;rounded=0;entryX=0.5;entryY=1;entryDx=0;entryDy=0;" parent="WIyWlLk6GJQsqaUBKTNV-1" target="pSBP2XaphJv6vQinyB6E-172" edge="1">
          <mxGeometry width="50" height="50" relative="1" as="geometry">
            <mxPoint x="620" y="490" as="sourcePoint" />
            <mxPoint x="540" y="500" as="targetPoint" />
          </mxGeometry>
        </mxCell>
        <mxCell id="pSBP2XaphJv6vQinyB6E-192" value="" style="endArrow=none;html=1;rounded=0;entryX=0.5;entryY=1;entryDx=0;entryDy=0;" parent="WIyWlLk6GJQsqaUBKTNV-1" target="pSBP2XaphJv6vQinyB6E-172" edge="1">
          <mxGeometry width="50" height="50" relative="1" as="geometry">
            <mxPoint x="620" y="510" as="sourcePoint" />
            <mxPoint x="540" y="500" as="targetPoint" />
          </mxGeometry>
        </mxCell>
        <mxCell id="pSBP2XaphJv6vQinyB6E-193" value="" style="endArrow=none;html=1;rounded=0;entryX=0.5;entryY=1;entryDx=0;entryDy=0;" parent="WIyWlLk6GJQsqaUBKTNV-1" target="pSBP2XaphJv6vQinyB6E-124" edge="1">
          <mxGeometry width="50" height="50" relative="1" as="geometry">
            <mxPoint x="610" y="650" as="sourcePoint" />
            <mxPoint x="540" y="570" as="targetPoint" />
          </mxGeometry>
        </mxCell>
        <mxCell id="pSBP2XaphJv6vQinyB6E-195" value="" style="endArrow=none;html=1;rounded=0;entryX=1;entryY=0.75;entryDx=0;entryDy=0;" parent="WIyWlLk6GJQsqaUBKTNV-1" target="pSBP2XaphJv6vQinyB6E-124" edge="1">
          <mxGeometry width="50" height="50" relative="1" as="geometry">
            <mxPoint x="680" y="680" as="sourcePoint" />
            <mxPoint x="540" y="570" as="targetPoint" />
          </mxGeometry>
        </mxCell>
        <mxCell id="pSBP2XaphJv6vQinyB6E-196" value="&lt;font style=&quot;font-size: 9px;&quot;&gt;单位费用&lt;/font&gt;" style="ellipse;whiteSpace=wrap;html=1;" parent="WIyWlLk6GJQsqaUBKTNV-1" vertex="1">
          <mxGeometry x="610" y="600" width="40" height="20" as="geometry" />
        </mxCell>
        <mxCell id="pSBP2XaphJv6vQinyB6E-197" value="&lt;font style=&quot;font-size: 9px;&quot;&gt;最大就收费金额&lt;/font&gt;" style="ellipse;whiteSpace=wrap;html=1;" parent="WIyWlLk6GJQsqaUBKTNV-1" vertex="1">
          <mxGeometry x="650" y="680" width="70" height="30" as="geometry" />
        </mxCell>
        <mxCell id="pSBP2XaphJv6vQinyB6E-198" value="&lt;font style=&quot;font-size: 9px;&quot;&gt;计时单位&lt;/font&gt;" style="ellipse;whiteSpace=wrap;html=1;" parent="WIyWlLk6GJQsqaUBKTNV-1" vertex="1">
          <mxGeometry x="590" y="650" width="50" height="20" as="geometry" />
        </mxCell>
        <mxCell id="pSBP2XaphJv6vQinyB6E-199" value="" style="endArrow=none;html=1;rounded=0;exitX=1;exitY=0.5;exitDx=0;exitDy=0;" parent="WIyWlLk6GJQsqaUBKTNV-1" source="pSBP2XaphJv6vQinyB6E-124" edge="1">
          <mxGeometry width="50" height="50" relative="1" as="geometry">
            <mxPoint x="490" y="600" as="sourcePoint" />
            <mxPoint x="680" y="540" as="targetPoint" />
          </mxGeometry>
        </mxCell>
        <mxCell id="pSBP2XaphJv6vQinyB6E-200" value="&lt;font style=&quot;font-size: 9px;&quot;&gt;停车位数量&lt;/font&gt;" style="ellipse;whiteSpace=wrap;html=1;" parent="WIyWlLk6GJQsqaUBKTNV-1" vertex="1">
          <mxGeometry x="680" y="532.5" width="50" height="20" as="geometry" />
        </mxCell>
        <mxCell id="pSBP2XaphJv6vQinyB6E-201" value="&lt;font style=&quot;font-size: 9px;&quot;&gt;停车场名称&lt;/font&gt;" style="ellipse;whiteSpace=wrap;html=1;" parent="WIyWlLk6GJQsqaUBKTNV-1" vertex="1">
          <mxGeometry x="710" y="450" width="50" height="20" as="geometry" />
        </mxCell>
        <mxCell id="pSBP2XaphJv6vQinyB6E-202" value="&lt;font style=&quot;font-size: 9px;&quot;&gt;车主姓名&lt;/font&gt;" style="ellipse;whiteSpace=wrap;html=1;" parent="WIyWlLk6GJQsqaUBKTNV-1" vertex="1">
          <mxGeometry x="640" y="460" width="40" height="20" as="geometry" />
        </mxCell>
        <mxCell id="pSBP2XaphJv6vQinyB6E-203" value="" style="endArrow=none;html=1;rounded=0;" parent="WIyWlLk6GJQsqaUBKTNV-1" edge="1">
          <mxGeometry width="50" height="50" relative="1" as="geometry">
            <mxPoint x="530" y="500" as="sourcePoint" />
            <mxPoint x="550" y="470" as="targetPoint" />
          </mxGeometry>
        </mxCell>
        <mxCell id="pSBP2XaphJv6vQinyB6E-204" value="&lt;font style=&quot;font-size: 9px;&quot;&gt;所属单位&lt;/font&gt;" style="ellipse;whiteSpace=wrap;html=1;" parent="WIyWlLk6GJQsqaUBKTNV-1" vertex="1">
          <mxGeometry x="500" y="500" width="40" height="20" as="geometry" />
        </mxCell>
        <mxCell id="pSBP2XaphJv6vQinyB6E-205" value="" style="endArrow=none;html=1;rounded=0;entryX=0.5;entryY=1;entryDx=0;entryDy=0;" parent="WIyWlLk6GJQsqaUBKTNV-1" target="pSBP2XaphJv6vQinyB6E-172" edge="1">
          <mxGeometry width="50" height="50" relative="1" as="geometry">
            <mxPoint x="553" y="490" as="sourcePoint" />
            <mxPoint x="540" y="560" as="targetPoint" />
          </mxGeometry>
        </mxCell>
        <mxCell id="pSBP2XaphJv6vQinyB6E-206" value="&lt;font style=&quot;font-size: 9px;&quot;&gt;车位号&lt;/font&gt;" style="ellipse;whiteSpace=wrap;html=1;" parent="WIyWlLk6GJQsqaUBKTNV-1" vertex="1">
          <mxGeometry x="540" y="490" width="40" height="20" as="geometry" />
        </mxCell>
        <mxCell id="pSBP2XaphJv6vQinyB6E-207" value="&lt;font style=&quot;font-size: 9px;&quot;&gt;车牌号&lt;/font&gt;" style="ellipse;whiteSpace=wrap;html=1;" parent="WIyWlLk6GJQsqaUBKTNV-1" vertex="1">
          <mxGeometry x="610" y="510" width="40" height="20" as="geometry" />
        </mxCell>
        <mxCell id="pSBP2XaphJv6vQinyB6E-208" value="" style="endArrow=none;html=1;rounded=0;entryX=0.5;entryY=0;entryDx=0;entryDy=0;" parent="WIyWlLk6GJQsqaUBKTNV-1" target="pSBP2XaphJv6vQinyB6E-172" edge="1">
          <mxGeometry width="50" height="50" relative="1" as="geometry">
            <mxPoint x="550" y="420" as="sourcePoint" />
            <mxPoint x="540" y="490" as="targetPoint" />
          </mxGeometry>
        </mxCell>
        <mxCell id="pSBP2XaphJv6vQinyB6E-209" value="&lt;font style=&quot;font-size: 9px;&quot;&gt;电话&lt;/font&gt;" style="ellipse;whiteSpace=wrap;html=1;" parent="WIyWlLk6GJQsqaUBKTNV-1" vertex="1">
          <mxGeometry x="610" y="485" width="40" height="20" as="geometry" />
        </mxCell>
        <mxCell id="pSBP2XaphJv6vQinyB6E-210" value="&lt;font style=&quot;font-size: 9px;&quot;&gt;有效期限&lt;/font&gt;" style="ellipse;whiteSpace=wrap;html=1;" parent="WIyWlLk6GJQsqaUBKTNV-1" vertex="1">
          <mxGeometry x="530" y="400" width="40" height="20" as="geometry" />
        </mxCell>
        <mxCell id="pSBP2XaphJv6vQinyB6E-211" value="" style="endArrow=none;html=1;rounded=0;" parent="WIyWlLk6GJQsqaUBKTNV-1" edge="1">
          <mxGeometry width="50" height="50" relative="1" as="geometry">
            <mxPoint x="90" y="700" as="sourcePoint" />
            <mxPoint x="140" y="650" as="targetPoint" />
          </mxGeometry>
        </mxCell>
        <mxCell id="pSBP2XaphJv6vQinyB6E-212" value="" style="endArrow=none;html=1;rounded=0;" parent="WIyWlLk6GJQsqaUBKTNV-1" edge="1">
          <mxGeometry width="50" height="50" relative="1" as="geometry">
            <mxPoint x="130" y="690" as="sourcePoint" />
            <mxPoint x="140" y="650" as="targetPoint" />
          </mxGeometry>
        </mxCell>
        <mxCell id="pSBP2XaphJv6vQinyB6E-213" value="" style="endArrow=none;html=1;rounded=0;" parent="WIyWlLk6GJQsqaUBKTNV-1" edge="1">
          <mxGeometry width="50" height="50" relative="1" as="geometry">
            <mxPoint x="60" y="625" as="sourcePoint" />
            <mxPoint x="110" y="640" as="targetPoint" />
          </mxGeometry>
        </mxCell>
        <mxCell id="pSBP2XaphJv6vQinyB6E-214" value="" style="endArrow=none;html=1;rounded=0;" parent="WIyWlLk6GJQsqaUBKTNV-1" edge="1">
          <mxGeometry width="50" height="50" relative="1" as="geometry">
            <mxPoint x="60" y="670" as="sourcePoint" />
            <mxPoint x="110" y="640" as="targetPoint" />
          </mxGeometry>
        </mxCell>
        <mxCell id="pSBP2XaphJv6vQinyB6E-215" value="" style="endArrow=none;html=1;rounded=0;" parent="WIyWlLk6GJQsqaUBKTNV-1" edge="1">
          <mxGeometry width="50" height="50" relative="1" as="geometry">
            <mxPoint x="90" y="580" as="sourcePoint" />
            <mxPoint x="110" y="547.5" as="targetPoint" />
          </mxGeometry>
        </mxCell>
        <mxCell id="pSBP2XaphJv6vQinyB6E-216" value="" style="endArrow=none;html=1;rounded=0;" parent="WIyWlLk6GJQsqaUBKTNV-1" edge="1">
          <mxGeometry width="50" height="50" relative="1" as="geometry">
            <mxPoint x="180" y="680" as="sourcePoint" />
            <mxPoint x="140" y="650" as="targetPoint" />
          </mxGeometry>
        </mxCell>
        <mxCell id="pSBP2XaphJv6vQinyB6E-217" value="" style="endArrow=none;html=1;rounded=0;" parent="WIyWlLk6GJQsqaUBKTNV-1" edge="1">
          <mxGeometry width="50" height="50" relative="1" as="geometry">
            <mxPoint x="110" y="547.5" as="sourcePoint" />
            <mxPoint x="150" y="570" as="targetPoint" />
          </mxGeometry>
        </mxCell>
        <mxCell id="pSBP2XaphJv6vQinyB6E-218" value="" style="endArrow=none;html=1;rounded=0;entryX=1;entryY=0.5;entryDx=0;entryDy=0;" parent="WIyWlLk6GJQsqaUBKTNV-1" target="pSBP2XaphJv6vQinyB6E-177" edge="1">
          <mxGeometry width="50" height="50" relative="1" as="geometry">
            <mxPoint x="500" y="350" as="sourcePoint" />
            <mxPoint x="440" y="350" as="targetPoint" />
          </mxGeometry>
        </mxCell>
        <mxCell id="pSBP2XaphJv6vQinyB6E-219" value="" style="endArrow=none;html=1;rounded=0;entryX=1;entryY=0.5;entryDx=0;entryDy=0;" parent="WIyWlLk6GJQsqaUBKTNV-1" target="pSBP2XaphJv6vQinyB6E-177" edge="1">
          <mxGeometry width="50" height="50" relative="1" as="geometry">
            <mxPoint x="540" y="330" as="sourcePoint" />
            <mxPoint x="440" y="350" as="targetPoint" />
          </mxGeometry>
        </mxCell>
        <mxCell id="pSBP2XaphJv6vQinyB6E-220" value="" style="endArrow=none;html=1;rounded=0;exitX=0.5;exitY=0;exitDx=0;exitDy=0;" parent="WIyWlLk6GJQsqaUBKTNV-1" source="pSBP2XaphJv6vQinyB6E-177" edge="1">
          <mxGeometry width="50" height="50" relative="1" as="geometry">
            <mxPoint x="390" y="400" as="sourcePoint" />
            <mxPoint x="460" y="270" as="targetPoint" />
          </mxGeometry>
        </mxCell>
        <mxCell id="pSBP2XaphJv6vQinyB6E-221" value="" style="endArrow=none;html=1;rounded=0;entryX=1;entryY=0.5;entryDx=0;entryDy=0;" parent="WIyWlLk6GJQsqaUBKTNV-1" target="pSBP2XaphJv6vQinyB6E-177" edge="1">
          <mxGeometry width="50" height="50" relative="1" as="geometry">
            <mxPoint x="500" y="320" as="sourcePoint" />
            <mxPoint x="440" y="350" as="targetPoint" />
          </mxGeometry>
        </mxCell>
        <mxCell id="pSBP2XaphJv6vQinyB6E-222" value="" style="endArrow=none;html=1;rounded=0;exitX=0.5;exitY=0;exitDx=0;exitDy=0;" parent="WIyWlLk6GJQsqaUBKTNV-1" source="pSBP2XaphJv6vQinyB6E-177" edge="1">
          <mxGeometry width="50" height="50" relative="1" as="geometry">
            <mxPoint x="390" y="400" as="sourcePoint" />
            <mxPoint x="420" y="280" as="targetPoint" />
          </mxGeometry>
        </mxCell>
        <mxCell id="pSBP2XaphJv6vQinyB6E-223" value="&lt;font style=&quot;font-size: 9px;&quot;&gt;停车场名称&lt;/font&gt;" style="ellipse;whiteSpace=wrap;html=1;" parent="WIyWlLk6GJQsqaUBKTNV-1" vertex="1">
          <mxGeometry x="495" y="340" width="55" height="20" as="geometry" />
        </mxCell>
        <mxCell id="pSBP2XaphJv6vQinyB6E-224" value="&lt;font style=&quot;font-size: 9px;&quot;&gt;所属单位&lt;/font&gt;" style="ellipse;whiteSpace=wrap;html=1;" parent="WIyWlLk6GJQsqaUBKTNV-1" vertex="1">
          <mxGeometry x="540" y="320" width="40" height="20" as="geometry" />
        </mxCell>
        <mxCell id="pSBP2XaphJv6vQinyB6E-225" value="&lt;font style=&quot;font-size: 9px;&quot;&gt;车牌号&lt;/font&gt;" style="ellipse;whiteSpace=wrap;html=1;" parent="WIyWlLk6GJQsqaUBKTNV-1" vertex="1">
          <mxGeometry x="495" y="300" width="40" height="20" as="geometry" />
        </mxCell>
        <mxCell id="pSBP2XaphJv6vQinyB6E-226" value="&lt;font style=&quot;font-size: 9px;&quot;&gt;入场时间&lt;/font&gt;" style="ellipse;whiteSpace=wrap;html=1;movable=1;resizable=1;rotatable=1;deletable=1;editable=1;locked=0;connectable=1;" parent="WIyWlLk6GJQsqaUBKTNV-1" vertex="1">
          <mxGeometry x="447.5" y="250" width="40" height="20" as="geometry" />
        </mxCell>
        <mxCell id="pSBP2XaphJv6vQinyB6E-227" value="&lt;font style=&quot;font-size: 9px;&quot;&gt;出场时间&lt;/font&gt;" style="ellipse;whiteSpace=wrap;html=1;movable=1;resizable=1;rotatable=1;deletable=1;editable=1;locked=0;connectable=1;" parent="WIyWlLk6GJQsqaUBKTNV-1" vertex="1">
          <mxGeometry x="402.5" y="260" width="40" height="20" as="geometry" />
        </mxCell>
        <mxCell id="pSBP2XaphJv6vQinyB6E-228" value="" style="endArrow=none;html=1;rounded=0;exitX=0.5;exitY=0;exitDx=0;exitDy=0;" parent="WIyWlLk6GJQsqaUBKTNV-1" source="pSBP2XaphJv6vQinyB6E-176" edge="1">
          <mxGeometry width="50" height="50" relative="1" as="geometry">
            <mxPoint x="390" y="390" as="sourcePoint" />
            <mxPoint x="330" y="320" as="targetPoint" />
          </mxGeometry>
        </mxCell>
        <mxCell id="pSBP2XaphJv6vQinyB6E-229" value="" style="endArrow=none;html=1;rounded=0;" parent="WIyWlLk6GJQsqaUBKTNV-1" edge="1">
          <mxGeometry width="50" height="50" relative="1" as="geometry">
            <mxPoint x="320" y="360" as="sourcePoint" />
            <mxPoint x="360" y="320" as="targetPoint" />
          </mxGeometry>
        </mxCell>
        <mxCell id="pSBP2XaphJv6vQinyB6E-230" value="" style="endArrow=none;html=1;rounded=0;exitX=0.5;exitY=0;exitDx=0;exitDy=0;" parent="WIyWlLk6GJQsqaUBKTNV-1" source="pSBP2XaphJv6vQinyB6E-176" edge="1">
          <mxGeometry width="50" height="50" relative="1" as="geometry">
            <mxPoint x="390" y="390" as="sourcePoint" />
            <mxPoint x="260" y="300" as="targetPoint" />
          </mxGeometry>
        </mxCell>
        <mxCell id="pSBP2XaphJv6vQinyB6E-232" value="" style="endArrow=none;html=1;rounded=0;exitX=0;exitY=0.5;exitDx=0;exitDy=0;" parent="WIyWlLk6GJQsqaUBKTNV-1" source="pSBP2XaphJv6vQinyB6E-176" edge="1">
          <mxGeometry width="50" height="50" relative="1" as="geometry">
            <mxPoint x="390" y="390" as="sourcePoint" />
            <mxPoint x="230" y="350" as="targetPoint" />
          </mxGeometry>
        </mxCell>
        <mxCell id="pSBP2XaphJv6vQinyB6E-233" value="&lt;font style=&quot;font-size: 9px;&quot;&gt;角色名称&lt;/font&gt;" style="ellipse;whiteSpace=wrap;html=1;movable=1;resizable=1;rotatable=1;deletable=1;editable=1;locked=0;connectable=1;" parent="WIyWlLk6GJQsqaUBKTNV-1" vertex="1">
          <mxGeometry x="347.5" y="300" width="40" height="20" as="geometry" />
        </mxCell>
        <mxCell id="pSBP2XaphJv6vQinyB6E-234" value="&lt;font style=&quot;font-size: 9px;&quot;&gt;角色标识&lt;/font&gt;" style="ellipse;whiteSpace=wrap;html=1;movable=1;resizable=1;rotatable=1;deletable=1;editable=1;locked=0;connectable=1;" parent="WIyWlLk6GJQsqaUBKTNV-1" vertex="1">
          <mxGeometry x="305" y="300" width="40" height="20" as="geometry" />
        </mxCell>
        <mxCell id="pSBP2XaphJv6vQinyB6E-235" value="&lt;font style=&quot;font-size: 9px;&quot;&gt;备注&lt;/font&gt;" style="ellipse;whiteSpace=wrap;html=1;movable=1;resizable=1;rotatable=1;deletable=1;editable=1;locked=0;connectable=1;" parent="WIyWlLk6GJQsqaUBKTNV-1" vertex="1">
          <mxGeometry x="240" y="280" width="40" height="20" as="geometry" />
        </mxCell>
        <mxCell id="pSBP2XaphJv6vQinyB6E-236" value="&lt;font style=&quot;font-size: 9px;&quot;&gt;创建时间&lt;/font&gt;" style="ellipse;whiteSpace=wrap;html=1;movable=1;resizable=1;rotatable=1;deletable=1;editable=1;locked=0;connectable=1;" parent="WIyWlLk6GJQsqaUBKTNV-1" vertex="1">
          <mxGeometry x="190" y="340" width="40" height="20" as="geometry" />
        </mxCell>
        <mxCell id="pSBP2XaphJv6vQinyB6E-237" value="" style="endArrow=none;html=1;rounded=0;" parent="WIyWlLk6GJQsqaUBKTNV-1" edge="1">
          <mxGeometry width="50" height="50" relative="1" as="geometry">
            <mxPoint x="110" y="550" as="sourcePoint" />
            <mxPoint x="120" y="580" as="targetPoint" />
          </mxGeometry>
        </mxCell>
        <mxCell id="pSBP2XaphJv6vQinyB6E-238" value="" style="endArrow=none;html=1;rounded=0;entryX=0.5;entryY=0;entryDx=0;entryDy=0;" parent="WIyWlLk6GJQsqaUBKTNV-1" target="pSBP2XaphJv6vQinyB6E-179" edge="1">
          <mxGeometry width="50" height="50" relative="1" as="geometry">
            <mxPoint x="160" y="490" as="sourcePoint" />
            <mxPoint x="190" y="550" as="targetPoint" />
          </mxGeometry>
        </mxCell>
        <mxCell id="pSBP2XaphJv6vQinyB6E-239" value="&lt;font style=&quot;font-size: 9px;&quot;&gt;上级菜单&lt;/font&gt;" style="ellipse;whiteSpace=wrap;html=1;" parent="WIyWlLk6GJQsqaUBKTNV-1" vertex="1">
          <mxGeometry x="150" y="475" width="40" height="20" as="geometry" />
        </mxCell>
        <mxCell id="pSBP2XaphJv6vQinyB6E-240" value="" style="endArrow=none;html=1;rounded=0;exitX=0.5;exitY=0;exitDx=0;exitDy=0;" parent="WIyWlLk6GJQsqaUBKTNV-1" source="pSBP2XaphJv6vQinyB6E-242" edge="1">
          <mxGeometry width="50" height="50" relative="1" as="geometry">
            <mxPoint x="140" y="590" as="sourcePoint" />
            <mxPoint x="110" y="480" as="targetPoint" />
          </mxGeometry>
        </mxCell>
        <mxCell id="pSBP2XaphJv6vQinyB6E-241" value="" style="endArrow=none;html=1;rounded=0;entryX=0.5;entryY=0;entryDx=0;entryDy=0;" parent="WIyWlLk6GJQsqaUBKTNV-1" target="pSBP2XaphJv6vQinyB6E-179" edge="1">
          <mxGeometry width="50" height="50" relative="1" as="geometry">
            <mxPoint x="60" y="500" as="sourcePoint" />
            <mxPoint x="190" y="540" as="targetPoint" />
          </mxGeometry>
        </mxCell>
        <mxCell id="pSBP2XaphJv6vQinyB6E-243" value="" style="endArrow=none;html=1;rounded=0;exitX=0.5;exitY=0;exitDx=0;exitDy=0;" parent="WIyWlLk6GJQsqaUBKTNV-1" source="pSBP2XaphJv6vQinyB6E-179" target="pSBP2XaphJv6vQinyB6E-242" edge="1">
          <mxGeometry width="50" height="50" relative="1" as="geometry">
            <mxPoint x="118" y="528" as="sourcePoint" />
            <mxPoint x="110" y="480" as="targetPoint" />
          </mxGeometry>
        </mxCell>
        <mxCell id="pSBP2XaphJv6vQinyB6E-242" value="&lt;font style=&quot;font-size: 9px;&quot;&gt;菜单名称&lt;/font&gt;" style="ellipse;whiteSpace=wrap;html=1;" parent="WIyWlLk6GJQsqaUBKTNV-1" vertex="1">
          <mxGeometry x="90" y="460" width="40" height="20" as="geometry" />
        </mxCell>
        <mxCell id="pSBP2XaphJv6vQinyB6E-244" value="&lt;font style=&quot;font-size: 9px;&quot;&gt;url&lt;/font&gt;" style="ellipse;whiteSpace=wrap;html=1;" parent="WIyWlLk6GJQsqaUBKTNV-1" vertex="1">
          <mxGeometry x="30" y="480" width="40" height="20" as="geometry" />
        </mxCell>
        <mxCell id="pSBP2XaphJv6vQinyB6E-245" value="&lt;font style=&quot;font-size: 9px;&quot;&gt;图标&lt;/font&gt;" style="ellipse;whiteSpace=wrap;html=1;" parent="WIyWlLk6GJQsqaUBKTNV-1" vertex="1">
          <mxGeometry x="60" y="575" width="40" height="20" as="geometry" />
        </mxCell>
        <mxCell id="pSBP2XaphJv6vQinyB6E-246" value="&lt;font style=&quot;font-size: 9px;&quot;&gt;权限&lt;/font&gt;" style="ellipse;whiteSpace=wrap;html=1;" parent="WIyWlLk6GJQsqaUBKTNV-1" vertex="1">
          <mxGeometry x="110" y="575" width="40" height="20" as="geometry" />
        </mxCell>
        <mxCell id="pSBP2XaphJv6vQinyB6E-247" value="&lt;font style=&quot;font-size: 9px;&quot;&gt;排序&lt;/font&gt;" style="ellipse;whiteSpace=wrap;html=1;" parent="WIyWlLk6GJQsqaUBKTNV-1" vertex="1">
          <mxGeometry x="145" y="560" width="40" height="20" as="geometry" />
        </mxCell>
        <mxCell id="pSBP2XaphJv6vQinyB6E-248" value="&lt;font style=&quot;font-size: 9px;&quot;&gt;操作时间&lt;/font&gt;" style="ellipse;whiteSpace=wrap;html=1;" parent="WIyWlLk6GJQsqaUBKTNV-1" vertex="1">
          <mxGeometry x="170" y="680" width="40" height="20" as="geometry" />
        </mxCell>
        <mxCell id="pSBP2XaphJv6vQinyB6E-249" value="&lt;font style=&quot;font-size: 9px;&quot;&gt;用户名&lt;/font&gt;" style="ellipse;whiteSpace=wrap;html=1;" parent="WIyWlLk6GJQsqaUBKTNV-1" vertex="1">
          <mxGeometry x="110" y="690" width="40" height="20" as="geometry" />
        </mxCell>
        <mxCell id="pSBP2XaphJv6vQinyB6E-250" value="&lt;font style=&quot;font-size: 9px;&quot;&gt;用户类型&lt;/font&gt;" style="ellipse;whiteSpace=wrap;html=1;" parent="WIyWlLk6GJQsqaUBKTNV-1" vertex="1">
          <mxGeometry x="60" y="700" width="40" height="20" as="geometry" />
        </mxCell>
        <mxCell id="pSBP2XaphJv6vQinyB6E-251" value="&lt;font style=&quot;font-size: 9px;&quot;&gt;响应时间&lt;/font&gt;" style="ellipse;whiteSpace=wrap;html=1;" parent="WIyWlLk6GJQsqaUBKTNV-1" vertex="1">
          <mxGeometry x="30" y="670" width="40" height="20" as="geometry" />
        </mxCell>
        <mxCell id="pSBP2XaphJv6vQinyB6E-252" value="&lt;font style=&quot;font-size: 9px;&quot;&gt;用户操作&lt;/font&gt;" style="ellipse;whiteSpace=wrap;html=1;" parent="WIyWlLk6GJQsqaUBKTNV-1" vertex="1">
          <mxGeometry x="30" y="620" width="40" height="20" as="geometry" />
        </mxCell>
        <mxCell id="RFqgqOrc2PB1v2huV9-1-0" value="&lt;font style=&quot;font-size: 9px;&quot;&gt;N&lt;/font&gt;" style="text;html=1;align=center;verticalAlign=middle;resizable=0;points=[];autosize=1;strokeColor=none;fillColor=none;" vertex="1" parent="WIyWlLk6GJQsqaUBKTNV-1">
          <mxGeometry x="250" y="552.5" width="30" height="30" as="geometry" />
        </mxCell>
        <mxCell id="RFqgqOrc2PB1v2huV9-1-2" value="&lt;font style=&quot;font-size: 9px;&quot;&gt;1&lt;/font&gt;" style="text;html=1;align=center;verticalAlign=middle;resizable=0;points=[];autosize=1;strokeColor=none;fillColor=none;" vertex="1" parent="WIyWlLk6GJQsqaUBKTNV-1">
          <mxGeometry x="165" y="515" width="30" height="30" as="geometry" />
        </mxCell>
      </root>
    </mxGraphModel>
  </diagram>
</mxfile>
